<?xml version="1.0" encoding="utf-8"?>
<!-- Generator: Adobe Illustrator 27.9.0, SVG Export Plug-In . SVG Version: 6.00 Build 0)  -->
<svg version="1.1"
	 id="svg23" xmlns:svg="http://www.w3.org/2000/svg" xmlns:sodipodi="http://sodipodi.sourceforge.net/DTD/sodipodi-0.dtd" xmlns:inkscape="http://www.inkscape.org/namespaces/inkscape" sodipodi:docname="logo.svg"
	 xmlns="http://www.w3.org/2000/svg" xmlns:xlink="http://www.w3.org/1999/xlink" x="0px" y="0px" viewBox="0 0 308.8 304.9"
	 style="enable-background:new 0 0 308.8 304.9;" xml:space="preserve">
<style type="text/css">
	.st0{fill:none;}
	.st1{fill:#183D3D;}
	.st2{fill:#FFFFFF;}
</style>
<g>
	
		<sodipodi:namedview  bordercolor="#000000" borderopacity="0.25" id="namedview25" inkscape:deskcolor="#d1d1d1" inkscape:pagecheckerboard="0" inkscape:pageopacity="0.0" inkscape:showpageshadow="2" pagecolor="#ffffff">
		</sodipodi:namedview>
	<g>
		<path class="st0" d="M264.1,68.4l0.6,0.6l0.6,0.6h0.3l-1.9-2.4C263.9,67.5,264.1,67.9,264.1,68.4z"/>
		<path class="st1" d="M51.3,46.1h-0.9L47,49.2l-0.6,1.1l2-1.7l0.9-0.3l1.7-1.4C51.3,46.6,51.3,46.3,51.3,46.1z"/>
		<path class="st1" d="M49.9,49.2c0.3-0.3,0.3-0.6,0.3-0.6h-0.6L49,49.8L49.9,49.2z"/>
		<polygon class="st1" points="55.3,42 55.3,41.5 55,41.5 54.5,42 		"/>
		<path class="st1" d="M49,49.8C48.8,49.5,48.8,49.8,49,49.8L49,49.8z"/>
		<polygon class="st1" points="56.5,43.8 57.9,43.8 56.8,43.2 		"/>
		<path class="st1" d="M195.2,18.6l1.1,1.1c0.7,0.8,1.9,1,2.9,0.6h1.7c-1.5-1.2-3.3-1.9-5.1-2l-2-0.6L195.2,18.6z"/>
		<path class="st1" d="M207.8,23.7l2.3,1.4C209.5,24.3,208.9,23.7,207.8,23.7z"/>
		<path class="st1" d="M179.2,13.4l-0.8-0.3c0.1,0.1,0.1,0.2,0.2,0.3H179.2z"/>
		<path class="st1" d="M54.7,40.6c-0.4,0.3-0.7,0.6-0.9,0.9C54.1,41.4,54.4,41.1,54.7,40.6z"/>
		<path class="st1" d="M178.4,13.1c-0.3-0.4-0.6-0.6-0.9-0.7c0.1,0.1,0,0.3,0.2,0.4L178.4,13.1z"/>
		<polygon class="st1" points="70.8,28.6 69.3,29.4 71.4,28.6 		"/>
		<path class="st1" d="M154,9.4l1.7,0.6h0.6c1.2,0.6,2.6,0.8,4,0.6c1.8-0.3,3.7-0.2,5.4,0.3h3.4c1.2-0.3,2.5,0.1,3.4,0.9
			c0.1,0.1,0.1,0.2,0,0.3h-1.1c-0.1,0.1-0.1,0.2,0,0.3h2c0.7-0.3,1.4-0.4,2.1-0.3c-3.6-1.6-7.6-2.3-11.5-2.2h-2.3
			c-3.3-1-6.8-1.4-10.3-1.1h0.6L154,9.4z"/>
		<path class="st1" d="M186.6,16c0,0.3,0.3,0.6,0.6,0.9h0.6l1.4-0.9c-1.5-0.9-3.1-1.5-4.9-1.7l2,1.1L186.6,16z"/>
		<path class="st1" d="M57,39.5h1.1c0.8-0.3,1.5-0.9,2-1.7v-0.6c0.8-1.7,2.1-3,3.7-4l2.3-1.4l0.6-0.6l1.1-1.1l1.3-0.7l-1,0.4l-4,2.9
			c-1.7,1.4-4,1.7-5.1,4h0.9c-2,0.6-4,1.4-4.9,3.4c-0.1,0.2-0.2,0.4-0.3,0.6l0,0L57,39.5z"/>
		<path class="st1" d="M177.6,12.4c0-0.1-0.1-0.1-0.4-0.1c-0.5-0.2-1.1-0.3-1.6-0.3c0.3,0.1,0.5,0.2,0.8,0.3
			C176.7,12.3,177.2,12.3,177.6,12.4z"/>
		<path class="st1" d="M25,75.2c0.8-1.3,1.6-2.5,2.6-3.7v-0.6c0.2-1.3,0.9-2.4,2-3.1l2.6-1.7l1.4-1.7l2-2l1.1-1.1l1.1-0.9
			c1-0.6,1.8-1.5,2.3-2.6l1.1-1.4c1.1-1.1,2.1-2.4,2.9-3.7l0.6-0.9l0.9-0.6L45,50.3l1.1-1.4c2.3-1.7,4-4,6.3-5.7l0.9-0.9
			c0.1-0.3,0.3-0.5,0.5-0.8c-0.7,0.4-1.5,0.5-2.2,1c-0.5,0.1-0.9,0.6-0.9,1.1c-2.3-0.3-3.1,1.4-4.3,2.6v2.3c-1.9,0.9-3.5,2.3-4.6,4
			c-4.6,0.3-4.6,6-8.6,7.2H33c-0.1,0.2-0.1,0.4,0,0.6c-0.9,0-1.4,0.6-1.1,1.4l-0.6,1.4c-2,1.1-1.7,3.1-2.9,4.9
			c-2.3,1.4-3.1,4.3-4.9,6.3l0.9,1.4L25,75.2z"/>
		<path class="st1" d="M99.8,203.6l-27,1c3.9,32.2,30.1,51.1,63.7,51.1c34,0,62.7-23.1,62.7-61.3v-136h-24.9v127.1
			c0,24.2-10.8,42.4-40.3,42.4C117.3,227.8,106.5,221.8,99.8,203.6z M76.7,208.9h21l0.7,1.8h-21L76.7,208.9z M78.8,215.9h22.4
			l1.4,1.8H79.2L78.8,215.9z M81.6,222.9h25.6l-0.4-0.4l2.8,2.1h-27L81.6,222.9z M136.6,252.6l-14.7-1.8h27L136.6,252.6z
			 M164.9,245.6h-58.8l-3.5-1.8h65.5L164.9,245.6z M175.8,238.6H94.6l-2.1-1.8h85.4L175.8,238.6z M177.9,131.9h17.9v1.8h-17.9V131.9
			z M177.9,138.9h17.9v1.8h-17.9V138.9z M177.9,145.9h17.9v1.8h-17.9V145.9z M177.9,152.9h17.9v1.7h-17.9V152.9z M177.9,159.9h17.9
			v1.8h-17.9V159.9z M177.9,166.9h17.9v1.8h-17.9V166.9z M177.9,173.9h17.9v1.8h-17.9V173.9z M177.9,180.9h17.9v1.8h-17.9V180.9z
			 M177.9,187.9h17.9v1.8h-18.2L177.9,187.9z M177.2,194.9h18.5v1.8h-18.9L177.2,194.9z M175.8,201.9h19.6l-0.7,1.8h-19.2
			L175.8,201.9z M173.3,208.9H194l-0.7,1.8h-20.7L173.3,208.9z M169.8,215.9h22.1l-0.7,1.8h-23.1L169.8,215.9z M163.2,222.9h25.6
			l-1,1.8h-26.6L163.2,222.9z M184.2,229.9l-1.4,1.8H87.2l-1-1.8h33.6l14.4,1l14.7-1H184.2z"/>
		<path class="st1" d="M286.5,208.8c0.6-1.4,1.7-5.1,2.3-7.4c0.1-0.7,0.4-1.4,0.9-2h0.3v-3.1c1.4-0.3,1.1-1.7,1.4-2.6l2.3-13.4
			c1.5-5.8,1.5-11.9,0-17.7c0.3-1.7-0.3-3.4-1.4-4.6v-12.3c-0.9-2.6,0.9-5.4-1.1-7.7l-2.3-9.2c0-0.2,0-0.4,0-0.6l-0.6-1.7
			c-0.2-0.4-0.2-0.8,0-1.1h0.3c0.9,0,0.9-1.4,0.9-2.6c-0.2-1.1-0.6-2.2-1.1-3.1l-0.9-1.1c-0.4-0.6-0.6-1.3-0.6-2
			c0.1-1.9-0.1-3.9-0.6-5.7V109c-0.6-2-1.1-4.3-1.7-6.3l-0.6-1.4c-0.6-0.9-1-2-1.1-3.1c-0.2-0.8-0.4-1.6-0.9-2.3l-1.7-2.9
			c-0.5-0.4-1.1-0.6-1.7-0.6h-0.3v-0.9h-0.6v-2.3h-0.3v-0.6c0-0.1,0-0.2,0-0.3v-0.6c0.3-0.6,0.3-0.9-0.3-1.4
			c-0.5-0.5-0.9-1.1-1.1-1.7l-0.6-1.7c-0.4-1.3-1.1-2.5-2-3.4c-0.6-0.6-1.1-1.2-1.4-2l-2-4.6c-0.4-1-1-2-1.7-2.9l-1.7-2.3
			c-0.5-0.7-0.9-1.5-1.1-2.3l-0.6-0.9c-0.3-0.4-0.4-0.9-0.3-1.4c0-0.5-0.2-0.9-0.6-1.1l-1.1-0.9v0.6c0.3,0.6,0,0.9-0.3,0.9H262
			l0.9,2.9l0.7,1.1c-0.6-0.8-1.6-1.3-2.7-1.4v-2c-0.9-3.4-4.6-3.7-6.3-6c-0.5-1.3-1.7-2.3-3.1-2.6l-2.3-2.6
			c-2.4-3.4-5.4-6.3-8.9-8.6l-2.3-1.7l-1.1-0.9c-2-2-2.9-5.1-6.3-5.1l-2.3-1.4l-2.6-2c-0.9-2.1-2.9-3.5-5.1-3.7
			c-1.9-1.7-4.1-2.9-6.6-3.4l0.6,0.6l1.4,1.1l3.7,2c2.2,1.2,4.3,2.7,6,4.6c1.3,1.2,2.7,2.3,4.3,3.1l1.7,1.4c0.3,0.3,0.6,0.6,0.3,0.9
			h-0.3L229,38c-2-0.4-4-1.2-5.7-2.3l-3.4-1.7l-3.7-2h-0.6c-0.9-0.3-1.1-1.1-2.3-1.4L211,30l-7.2-1.4c-1-0.5-1.9-1.2-2.6-2
			c-0.9,0-1.8-0.3-2.6-0.9l-2.9-1.1c-2.7-0.5-5.4-1.3-8-2.3l-1.7-0.6l-2.9-0.9h-1.4l-0.6-0.9v-0.3h-4.6l-1.7-1.4l-1.1,0.6l-1.1,0.6
			H172l-2.6-1.4c-1.7,1.7-3.1-0.6-4.6-0.3l-2.9-0.9c-1.1,0.6-2.4,0.6-3.4,0h-3.4c-0.8-0.1-1.4-0.9-1.4-1.7l0.9-0.6h1.7
			c0.2,0.3,0.3,0.6,0.3,0.9c0,0.6,0.6,0.6,1.4,0.6h0.6l-1.1-1.7c-0.8-0.6-1.9-0.9-2.9-0.6l-2.9,0.9h-0.3c0.9,0.6,0.6,0.9,0.6,1.4
			h-4.6l-1.1-0.6l-2.3-1.1h-0.3l-2-0.6h-6.6l1.1-0.6l2.3-0.6h0.9l4.9-0.9l3.1-0.6l1.7-0.6H146c-3.2-0.7-6.5-0.7-9.7,0h-3.7l-9.7-0.3
			c-4,0.3-8,0-11.2,3.4c-7.2-1.1-13.4,2-19.7,5.1l-6.3,2.6c-4,0.6-7.7,2.4-10.6,5.1h0.3H76l1.4-0.9l2.3-1.4l3.7-1.7l2.9-0.6
			c1.7-1.2,3.7-2.1,5.7-2.6l2.6-0.9h0.6c0.3,0.6,1.4,0,2,0h0.6c0.3,0,0.3,0.3,0,0.3L95.9,20l2.9-0.9l2.3-0.6l-3.7,2l-3.7,1.1
			C93,21.8,92.3,22.3,92,23l-0.9,1.4H92l1.1-0.6c0.6-0.9,1.5-1.5,2.6-1.7l4.3-1.4h1.4c0.2-0.1,0.4,0,0.4,0.1c0.1,0.2,0,0.4-0.1,0.4
			c-0.6,0.6-1.7,0.9-2.3,1.4h0.6l-9.2,2.6L79.9,30c-1.9,1.7-4.1,2.9-6.6,3.4c-1.4,1.3-3.1,2.4-4.9,3.1l-2.3,0.6
			c-0.6,1.5-2.1,2.5-3.7,2.6l-0.9,1.4c-0.1,0.1-0.1,0.1-0.2,0.2c-0.5-0.2-0.8-0.1-1.3,0.6c0,0.3,0,0.3,0.3,0.3l0.6-0.5
			c-0.8,1-1.8,1.8-2.9,2.5h-0.3V44l-0.6,0.6l-0.6,0.6l-2.9,0.6h-1.4l-1.1,1.4c-0.3,0.3-0.3,0.6,0,0.6h0.3c-1.7,1.7-2.9,4-5.1,4.9
			L42.6,57c-1.7,3.4-5.1,4.6-7.4,7.4c-2.3,2.9-4,11.2-11.2,12.3l-0.6-0.9L23,77.2c-0.3,0.8-0.6,1.6-1.1,2.3c-1.3,1.9-2.4,3.9-3.4,6
			c-0.2,0.4-0.3,0.9-0.3,1.4c0,0.8-0.2,1.6-0.6,2.3l-1.4,3.1h0.5c0,0.1-0.1,0.2-0.2,0.3h0.3v-0.3c0.9,0,0.9,0.9,1.1,1.7l2.3-3.1
			c0.4-0.8,1-1.5,1.7-2c1.1-0.6,2-1.5,2.6-2.6l0.9-0.9l1.1-1.1l1.7-3.1h0.6c0.3,0.3,0.3,0.3,0.6,0l0.6-1.1h1.4v2.3l1.4-1.4
			c0.3-0.4,0.3-1,0-1.4c0-0.3,0.1-0.6,0.3-0.9c0.4-0.4,0.7-0.9,0.9-1.4c0.3-1.2,1.2-2.1,2.3-2.6l0.9-0.6l0.9-0.9
			c1-0.7,1.8-1.7,2.3-2.9l-0.6-0.9c0-0.3,0.3-0.9,0.6-1.1h1.4l1.7-2.3l1.7-0.9h0.6c-5.9,6.4-11.1,13.3-15.7,20.6
			c-6.4,10-11.5,20.8-15.2,32h-1.4l-1.4-1.1c-0.6-0.6-0.3-2-1.1-2.6h0c0.9-1.4-0.3-3.4,0.9-4.9s0.3-4-2.6-3.4S5,107.1,5.6,110
			s-2.9,5.1-3.1,8.3c-0.3,3.1-1.4,1.4-0.9,2.6v11.2c0.3,2.3-1.4,5.1,2.3,6l3.7,2.6c0.3,1.4-1.4,4.6,2.6,3.7
			c-0.5,4.7-0.8,9.5-0.9,14.3c0,2.7,0.2,5.4,0.3,8.2c-0.3-1.1-0.3-2.2-0.5-3.6l-0.9,0.9v-0.6H6.7c0,1.4-0.3,2.3-1.1,2.6
			c-0.2,0.4-0.3,0.9-0.3,1.4c0,0.3,0.3,0.9,0.6,0.6c0.3-0.3,1.1,0.6,2,1.1s-0.6,0.9-1.1,0.6s-0.6,0.3-0.6,0.9v0.9l1.4,4.3
			c0,0.9-0.3,1.7-0.3,2.6c0,0.8,0.2,1.6,0.6,2.3H7V180l-2-0.6v-1.7c0.1-0.5,0.1-1,0-1.4c-0.4-1.7-0.7-3.4-0.9-5.1
			c-0.5-3.3-0.7-6.7-0.6-10c0-0.5,0.1-1,0.3-1.4v0.6c0.1,0.5,0.2,0.9,0.3,1.4c0,0.4,0.1,0.8,0.3,1.1c0.3,0.6,0.6,1.1,1.1,1.1
			s0.3-0.3,0.3-0.6c0-0.5-0.1-1-0.3-1.4c-0.5-1.2-0.8-2.4-0.9-3.7c-0.1-0.7-0.4-1.4-0.9-2c-0.4-0.8-0.6-1.7-0.6-2.6v-2.3
			c0-0.9,0.3-1.7,0.3-2.6c0.1-0.4,0-0.8-0.3-1.1H3c-2.3,1.1-2,0.6-2.9,4.6v5.1c0,2-0.3,4,0,6c0,2.2,0.1,4.4,0.6,6.6
			c0.1,0.5,0.1,1,0,1.4c0,0.9,0.1,1.7,0.3,2.6c0.2,1.2,0.3,2.5,0.3,3.7c-0.2,1.6,0,3.3,0.6,4.9c0.1,0.4,0.1,0.8,0,1.1
			c-0.1,0.8,0,1.6,0.3,2.3c0.3,0.8,0.5,1.7,0.6,2.6c0.3,2.1,0.8,4.2,1.4,6.3c0.3,0.9,0.5,1.9,0.6,2.9c0.1,0.7,0.4,1.4,0.9,2
			c0.7,1,1.2,2.2,1.4,3.4c0.2,1,0.5,1.9,0.9,2.9l1.1,4c0.4,1.5,0.9,3,1.7,4.3c1,1.9,1.8,3.9,2.3,6l0.6,1.4c0.7,0.8,1.2,1.8,1.4,2.9
			c0.2,0.8,0.6,1.6,1.1,2.3c0.3,0.4,0.5,0.9,0.6,1.4c0.3,0.9,0.6,1.1,1.1,0.9h0.3v2.6l1.4,2.9l1.4,2.9l3.1,3.4l1.1,1.1
			c0.9,0.9,2,1.4,2.6,2.9l1.1,0.9c0.5,0.3,0.8,0.9,0.9,1.4l0.6,2c0.4,0.9,1,1.8,1.7,2.6l1.1,0.6h0.9c0.3,0.1,0.5,0.4,0.4,0.7
			c0,0,0,0.1-0.1,0.1c0,0.5,0,1,0,1.4c0.2,0.6,0.6,1.1,1.1,1.4h0.6c1.1-0.3,2.3,0.6,3.4,2h0.3c0-0.3,0.3-0.3,0-0.6V257
			c0-0.3,0.3-0.6,0.6-0.3c0.6,0.4,0.9,1,0.9,1.7v0.6c0.2,1.2,0.6,2.4,1.1,3.4c1.4,0.9,1.4,0.9,1.4,0.3s0-0.6,0.6-0.6h1.1l0.6,0.9
			l2.3,1.4c2,2.3,5.1,2,7.4,3.4l4.9,4.9h0.6c0.8,2.1,2.5,3.7,4.6,4.6c0.6,1,1.7,1.6,2.9,1.7c0,1.4,1.7,1.7,3.1,2
			c0.6,0.7,1.4,1.1,2.3,1.1h0.6c1.1,1.2,2.7,1.7,4.3,1.4l2.6,2.3l6.9,2.6v0.6c1.4,3.1,4.9,2,7.2,2.9l3.1,1.1h1.1
			c3.4,0.9,6.9,2.6,10.6,1.4c-0.1,0.4-0.1,0.8,0,1.1c3.1,2,6.9,0,10.3,1.1c1.6,0.6,3.2,0.7,4.9,0.3h0.3l2.3,0.6h0.9l2.6,0.6h0.9
			c0.4-0.3,1-0.3,1.4,0c1.4,0.5,2.8,0.9,4.3,1.1h1.7c0.6-0.4,1.4-0.4,2,0h11.2c1.5,0.2,3.1,0.1,4.6-0.3h2.9l1.4-0.6h9.4l1.7-0.6
			l1.4-0.9h6.3v1.7h-3.7l-3.4,0.6c-1.1,0.3-2,0-2.9,0.3c-0.9,0.4-1.9,0.6-2.9,0.6l-3.7,0.9h-1.1c-1.4-0.3-2.9-0.2-4.3,0.3H154
			c-0.8,0.4-1.8,0.4-2.6,0h-12.9c-1.1-0.2-2.3,0.1-3.1,0.9h-0.9l-0.9-0.6v-0.9H130c-1.2-0.5-2.4-0.8-3.7-0.9h-7.2l-2-0.6l-1.4-0.6
			l-6-1.1h-1.4l-1.4-0.6l-6-2l-4-1.1h-6.3c-0.3,0-0.3,0.3-0.3,0.6h0.6c3.7,1.4,7.4,2.6,11.2,4.3h0.9l2.6,0.6l4,1.1h3.7l1.7,0.6
			l2,0.9l4.9,0.9l3.1,0.6l3.1,0.6h2.3l2.3,0.6h8.9l2.9,0.6h6.6l2.9-0.6h6.3c1.1,0,1.7-0.3,2-0.9h2.9c0.9,0.1,1.7-0.2,2.3-0.9
			c-0.3,0.3,0,0.3,0.3,0.6h1.1v-0.6c0-0.3,0-0.3,0.6-0.6c0.6-0.3,1.7-0.3,2,0.3h1.1l0.9-0.6c0.6,0,0.6,0,0.6,0.3h2l1.4-0.6l2.3-1.1
			c0.3,0.9,1.1,1.1,3.7,0.6l3.7-1.1h3.4c2.6-0.3,5.7,0,7.7-2h0.6l1.1-0.9l3.1-0.9c2-0.4,4-1.2,5.7-2.3l1.1-0.6h0.3l2.6-1.7l1.1-0.6
			l1.4-0.6h1.1c1.1-0.3,1.1-0.3,1.4-1.1s0-0.3-0.6-0.3h-0.3l1.1-1.4h0.6c0.9-0.3,1.4-0.6,2-0.3h0.6c1.2-0.4,2.2-1.3,2.6-2.6
			c0.9-1.1,3.1-0.6,3.7-2.3l12.3-8.9c3.1-0.3,4-3.1,6.3-4.9c2.3-1.7,6.6-3.1,8.6-6.3l2.6-1.1h0.3c1.5,0.4,3-0.5,3.4-2v1.1
			c2.3-1.1,5.1,0.9,7.4-1.4s0-7.7,2.9-10.9l2-1.4c2.2-3.7,3.6-7.8,4.3-12l0.6-0.6c0-0.9,0-2,1.1-2.6c1.1-0.8,1.3-2.3,0.6-3.4h-0.6
			c0.2-0.3,0.2-0.6,0-0.9c2,0,2.3-2,3.4-2.9v-4c0-0.2,0-0.4,0-0.6c0.2-0.7,0.3-1.3,0.3-2l0,0l1.7-4.6L286.5,208.8z M212.2,194.5
			c0,44.1-34.7,71.1-75.6,71.1c-43.8,0-77-26.2-77-70.4l49.7-1.8c2.4,15.1,8.4,24.5,24.9,24.5c16.1,0,27.3-7,27.3-32.6V48.6h50.8
			v145.9H212.2z M265.3,69.5l-0.6-0.6l-0.6-0.6c-0.1-0.5-0.2-0.9-0.4-1.3l1.9,2.4L265.3,69.5L265.3,69.5z"/>
		<path class="st1" d="M163.7,16.9l0.6-0.3c0.3-0.4,0.5-0.9,0.6-1.4h-1.4l-0.9,0.9L163.7,16.9z"/>
		<path class="st1" d="M34.2,65.2l0.6-0.3c0.4-0.5,0.7-1.1,0.9-1.7c-0.6,0.4-1.1,0.8-1.4,1.4C33.9,64.9,33.9,65.2,34.2,65.2z"/>
		<path class="st1" d="M29,70.1c0.9,0.9,1.1,0.6,2.3-0.9v-0.6c-0.6,0-1.4,0.9-2.3,0.9V70.1z"/>
		<polygon class="st1" points="184.3,14.6 182,14 180.6,14 184,14.6 		"/>
		<path class="st1" d="M25.6,76.1c0.4-0.2,0.6-0.7,0.6-1.1L25,76.1H25.6z"/>
		<path class="st1" d="M190.1,16.6l3.7,1.1C192.6,17.1,191.4,16.7,190.1,16.6z"/>
		<polygon class="st1" points="92.8,20.3 92.8,20.9 93.1,20.9 93.9,20.3 		"/>
		<polygon class="st1" points="211.2,26.3 211.5,26.3 210.1,25.5 		"/>
		<path class="st1" d="M308.2,172.2c-0.2-0.8,0-1.7,0.6-2.3c-0.4-1.3-1.3-2.4-2.6-2.9l0,0h-0.9v-1.1h0.9c0.3,0,0.6-0.9,0.3-1.1
			c-0.3-0.3-0.3-2-0.9-2.3c-0.4-0.1-0.6-0.5-0.6-0.9l0.6-1.1c0-0.2,0-0.4,0-0.6H305l-0.6-0.9c-0.3,0.9-0.6,1.7-1.1,2
			c0,0.2,0,0.4,0,0.6c0,0.3,0,0.6-0.3,0.6h-0.3c-0.1,0.3-0.1,0.6-0.3,0.9c-0.6,0.8-1,1.6-1.1,2.6c-0.1,0.4,0,0.8,0.3,1.1h0.3
			c-0.3,0.7-0.4,1.5-0.3,2.3v1.1c0,0.5-0.1,1-0.3,1.4H301l-1.1,2v1.7c0.1,1.1-0.2,2.3-0.9,3.1h-0.6l-0.6-0.6
			c-0.5-0.7-0.6-1.5-0.3-2.3c0.3-1.6,0.4-3.2,0.3-4.9c0-0.3-0.3-0.6-0.3-0.6c-0.2,0.2-0.3,0.5-0.3,0.9v1.7c0,0.6-0.3,1.7-0.9,2
			s-0.3,0.6-0.3,0.9l-0.6,1.7l0.9,1.4c-0.6,0.6-1.1,0.3-1.4-0.3v2.9h0.9v1.1c-0.5,1.3-0.8,2.6-0.9,4c0,0.4,0,0.8,0,1.1
			c0,1.3-0.2,2.5-0.6,3.7c-0.1,0.6-0.1,1.1,0,1.7l-0.9,2c-0.2,0.7-0.5,1.4-0.9,2l-0.9,1.7l-2.6,7.7c0.9,2.6-1.1,4.3-2.3,6
			c0.3,2.4-0.5,4.9-2.3,6.6v1.1c0,0.3,0.3,0.6,0.9,0.3l1.1-0.9l0.6-1.1h0.6c0.3,0.3,0.6,0.3,1.1-0.3h0.6c0.5,0.4,0.6,1.1,0.3,1.7
			c-0.2,0.7-0.3,1.5-0.3,2.3c0,0.3,0,0.6,0.3,0.6h0.6c0.3,0.3,0.6,0,0.9-0.9l0.6-1.4h0.9c1.1-0.3,1.1-0.3,1.7-1.7l1.4-2.6l0.9-1.7
			l1.1-2.9c0-1,0.3-2,0.9-2.9c0.4-0.5,0.5-1.1,0.3-1.7c0-0.6,0-0.9,0.6-1.7l0.9-1.1l1.4-2.9c0.1-0.9,0.3-1.7,0.6-2.6
			c0.6-1.2,0.9-2.4,0.9-3.7c0.2-0.9,0.5-1.8,0.9-2.6v-1.4c-0.3-0.6-0.3-0.6,0-1.7c0.3-1.1,0.3-0.6,0.6-0.6c0.2,0.2,0.3,0.5,0.3,0.9
			l0.6-1.4c0.4-0.8,0.6-1.7,0.6-2.6v-0.9c0-0.3,0-0.9-0.3-0.9v1.1c-0.6,0-0.9,0.6-1.4,0.9c0.1-0.8,0.2-1.5,0.3-2.3l1.1-0.6
			c0.5-0.4,0.7-1.1,0.6-1.7c0-0.3,0-0.6,0-0.9c0.4-1.3,0.6-2.6,0.6-4v-0.6l0.9-2.9h0.3c0.3-0.2,0.4-0.5,0.3-0.9h-0.5V172.2z"/>
		<polygon class="st1" points="85.1,24 85.4,24 85.4,23.7 		"/>
		<path class="st1" d="M25.9,87.5L25.3,87l-0.6,0.6l-0.9,1.7c0,0.9-0.9,1.7-0.9,2.6v0.6h0.3l2.6-4.3C25.9,87.9,25.9,87.7,25.9,87.5z
			"/>
		<polygon class="st1" points="73.4,28 74.8,27.5 75.4,26.6 74.5,27.2 		"/>
		<path class="st1" d="M39.6,258.9c-0.5,0-1-0.2-1.4-0.6l-0.6-0.6c-0.3,0,0,0.6,0,0.9l2.3,2.3h0.3C39.6,260,39.3,259.1,39.6,258.9z"
			/>
		<path class="st1" d="M301.3,159h0.3c0.6-1,0.8-2.3,0.6-3.4c-0.1-0.5,0.1-1.1,0.6-1.4h0.3v-0.6l-0.6-0.6h-0.3
			c-0.3,0.3-0.6,0.9-0.9,0.9s-0.3,0.3-0.3,0.9v0.9C300.8,156.8,300.9,157.9,301.3,159L301.3,159z"/>
		<path class="st1" d="M303.9,156.5L303.9,156.5h0.3c0.1-0.6,0.1-1.1,0-1.7c-0.9,0.3-0.9,0.3-0.9,1.7S303.6,156.7,303.9,156.5z"/>
		<path class="st1" d="M204.1,22.3c1.4-0.3,2.3,1.1,3.4,1.4h0.3l-0.9-0.6l-2.9-1.4l-3.1-1.4l0.9,0.6L204.1,22.3z"/>
		<polygon class="st1" points="48.2,264.9 48.2,265.4 48.8,266 49.3,266 49.3,265.4 48.8,264.9 		"/>
		<path class="st1" d="M296.2,169.3l0.3,0.3C296.5,169.3,296.5,169.3,296.2,169.3z"/>
		<polygon class="st1" points="28.2,247.4 29.6,248.9 28.4,247.1 		"/>
		<path class="st1" d="M305.3,153.9H305v1.7C305.3,155.1,305.4,154.5,305.3,153.9z"/>
		<polygon class="st1" points="47.3,266.6 47.6,266.6 47.3,266.3 		"/>
		<path class="st1" d="M46.8,264.6h-0.3c0.3,0.3,0.6,0,0.3-0.3V264.6z"/>
		<polygon class="st2" points="194,208.9 173.3,208.9 172.6,210.6 193.3,210.6 		"/>
		<polygon class="st2" points="195.4,201.9 175.8,201.9 175.4,203.6 194.7,203.6 		"/>
		<polygon class="st2" points="188.7,222.9 163.2,222.9 161.1,224.6 187.7,224.6 		"/>
		<polygon class="st2" points="191.9,215.9 169.8,215.9 168.1,217.6 191.2,217.6 		"/>
		<rect x="177.9" y="180.9" class="st2" width="17.9" height="1.8"/>
		<path class="st2" d="M161.4,185.4c0,25.6-11.2,32.6-27.3,32.6c-16.5,0-22.4-9.5-24.9-24.5l-49.7,1.8c0,44.1,33.3,70.4,77,70.4
			c41,0,75.6-27,75.6-71.1v-146h-50.8v136.8H161.4z M174.4,185.4v-127h24.9v136.2c0,38.2-28.7,61.3-62.7,61.3
			c-33.6,0-59.9-18.9-63.7-51.1l27-1c6.6,18.2,17.5,24.2,34.3,24.2C163.5,227.8,174.4,209.6,174.4,185.4z"/>
		<rect x="177.9" y="173.9" class="st2" width="17.9" height="1.8"/>
		<polygon class="st2" points="195.7,187.9 177.9,187.9 177.5,189.6 195.7,189.6 		"/>
		<polygon class="st2" points="195.7,194.9 177.2,194.9 176.8,196.6 195.7,196.6 		"/>
		<polygon class="st2" points="101.2,215.9 78.8,215.9 79.2,217.6 102.6,217.6 		"/>
		<polygon class="st2" points="106.8,222.5 107.2,222.9 81.6,222.9 82.7,224.6 109.6,224.6 		"/>
		<polygon class="st2" points="136.6,252.6 148.8,250.9 121.9,250.9 		"/>
		<polygon class="st2" points="97.7,208.9 76.7,208.9 77.4,210.6 98.4,210.6 		"/>
		<polygon class="st2" points="119.8,229.9 86.2,229.9 87.2,231.6 182.8,231.6 184.2,229.9 148.8,229.9 134.1,230.9 		"/>
		<polygon class="st2" points="106.1,245.6 164.9,245.6 168.1,243.9 102.6,243.9 		"/>
		<rect x="177.9" y="138.9" class="st2" width="17.9" height="1.8"/>
		<rect x="177.9" y="152.9" class="st2" width="17.9" height="1.7"/>
		<rect x="177.9" y="159.9" class="st2" width="17.9" height="1.8"/>
		<rect x="177.9" y="145.9" class="st2" width="17.9" height="1.8"/>
		<rect x="177.9" y="166.9" class="st2" width="17.9" height="1.8"/>
		<rect x="177.9" y="131.9" class="st2" width="17.9" height="1.8"/>
		<polygon class="st2" points="94.6,238.6 175.8,238.6 177.9,236.9 92.5,236.9 		"/>
	</g>
</g>
</svg>
